# xmcd
#
# Track frame offsets:
#	150
#	12741
#	25719
#	38931
#	52352
#	65029
#	76307
#	85474
#	95948
#	109173
#	120999
#	135782
#	147263
#	161037
#	173112
#	186427
#	199073
#	208788
#	216050
#	228348
#	245003
#	254859
#	264266
#	277400
#	288430
#
# Disc length: 4055 seconds
#
# Revision: 0
# Processed by: cddbd v1.5.1PL2 Copyright (c) Steve Scherf et al.
# Submitted via: dBpowerAMP V4.0
#
DISCID=8b0fd519
DTITLE=Hank WIlliams - The Gospel According To HANK WILLIAMS
DYEAR=2005
DGENRE=Country
TTITLE0=I Saw The Light
TTITLE1=When God Comes And Gathers His Jewels
TTITLE2=Jesus Remembers Me
TTITLE3=Help Me Understand
TTITLE4=Wealth Won't Save Your Soul
TTITLE5=The Prodigal Son
TTITLE6=When God Dips His Love In My Heart
TTITLE7=Are You Walkin' and A Talkin' For The Lord
TTITLE8=Calling You
TTITLE9=I Heard My Mother Praying For Me
TTITLE10=Drifting Too Far From The Shore
TTITLE11=Something Got A Hold On Me
TTITLE12=Beyond The Sunset
TTITLE13=The Old Family Church
TTITLE14=I've Just Told Mama Goodbye
TTITLE15=Dear Brother
TTITLE16=Let The Spirit Descend
TTITLE17=Where The Soul Of A Man Never Dies
TTITLE18=How Can You Refuse Him Now
TTITLE19=The Tramp On The Street
TTITLE20=I'll Have A New Body (I'll Have A New Life)
TTITLE21=My Main Trial Is Yet To Come
TTITLE22=Pictures From Life's Other Side
TTITLE23=A House Of Gold
TTITLE24=Thy Burdens Are Greater Than Mine
EXTD=
EXTT0=
EXTT1=
EXTT2=
EXTT3=
EXTT4=
EXTT5=
EXTT6=
EXTT7=
EXTT8=
EXTT9=
EXTT10=
EXTT11=
EXTT12=
EXTT13=
EXTT14=
EXTT15=
EXTT16=
EXTT17=
EXTT18=
EXTT19=
EXTT20=
EXTT21=
EXTT22=
EXTT23=
EXTT24=
PLAYORDER=
